<svg xmlns="http://www.w3.org/2000/svg" viewBox="0 0 512 500"><defs><style>.cls-1{fill:#fff;}</style></defs><g id="Layer_2" data-name="Layer 2"><g id="Layer_1-2" data-name="Layer 1"><path class="cls-1" d="M245.21,360.39a16.39,16.39,0,0,1-11.63-4.81l-95.89-96a152.69,152.69,0,0,1,0-215.21A151.88,151.88,0,0,1,397.09,152a151.2,151.2,0,0,1-44.36,107.61l-95.9,96A16.35,16.35,0,0,1,245.21,360.39Zm0-343.94A135.09,135.09,0,0,0,109.76,152a134.84,134.84,0,0,0,39.55,96l95.9,96h0l95.89-96A136.23,136.23,0,0,0,341.1,56,134.6,134.6,0,0,0,245.21,16.45ZM237,260.2a11.58,11.58,0,0,0,16.39,0h0a11.59,11.59,0,0,0,0-16.4l-48.68-48.72a58.86,58.86,0,0,1-17.44-42.14,57.51,57.51,0,0,1,9.58-31.32l89.82,89.89a10.87,10.87,0,0,0,15.38,0l.5-.51A81.21,81.21,0,0,0,258.71,73.54,11.6,11.6,0,0,0,245.21,85h0A11.62,11.62,0,0,0,255,96.43a58,58,0,0,1,38.59,89.16L203.74,95.7a10.87,10.87,0,0,0-15.38,0h0a82.09,82.09,0,0,0-24.26,57.8A80.66,80.66,0,0,0,187.85,211Z"/><path class="cls-1" d="M0,491.82V428.07a6.75,6.75,0,0,1,6.86-6.86h45a6.14,6.14,0,0,1,6.08,6.09,6.07,6.07,0,0,1-6.08,6.08H13.6v20.14H46.88a6.16,6.16,0,0,1,6.08,6.2,6,6,0,0,1-6.08,6H13.6v20.8H52.41a6.14,6.14,0,0,1,6.08,6.09,6.07,6.07,0,0,1-6.08,6.09H6.86A6.76,6.76,0,0,1,0,491.82Zm72.58-45.49a6.6,6.6,0,0,1,6.63-6.75A6.7,6.7,0,0,1,86,446.33v2.88C89.72,443.78,95.14,439,104.2,439c13.16,0,20.79,8.86,20.79,22.36v31.21a6.52,6.52,0,0,1-6.63,6.64,6.61,6.61,0,0,1-6.75-6.64V465.48c0-9.07-4.53-14.28-12.49-14.28-7.75,0-13.16,5.42-13.16,14.5v26.89a6.69,6.69,0,0,1-13.38,0ZM142,424a6.59,6.59,0,0,1,6.63-6.64,6.69,6.69,0,0,1,6.75,6.64v68.62a6.69,6.69,0,0,1-13.38,0Zm27,57.88v-.21c0-12.62,9.84-18.82,24.11-18.82a48.7,48.7,0,0,1,15.7,2.43v-1.44c0-8.3-5.08-12.72-14.48-12.72a34.63,34.63,0,0,0-12.94,2.32,7.27,7.27,0,0,1-2.1.34,5.57,5.57,0,0,1-5.64-5.54,5.84,5.84,0,0,1,3.65-5.31,50,50,0,0,1,18.8-3.43c8.73,0,15.25,2.32,19.34,6.53,4.32,4.21,6.31,10.41,6.31,18v28.77a6.38,6.38,0,0,1-6.53,6.42c-3.87,0-6.52-2.65-6.52-5.65v-2.21c-4,4.76-10.06,8.52-19,8.52C178.68,499.89,168.94,493.58,168.94,481.85Zm40-4.2v-4a37.27,37.27,0,0,0-13.27-2.31c-8.62,0-13.71,3.64-13.71,9.73v.22c0,5.64,5,8.85,11.39,8.85C202.23,490.15,209,485.06,209,477.65ZM237.75,424a6.53,6.53,0,0,1,6.64-6.64,6.61,6.61,0,0,1,6.74,6.64v26c4.32-6.08,10.4-11,19.91-11,13.71,0,27.09,10.85,27.09,30.32v.23c0,19.36-13.27,30.32-27.09,30.32-9.73,0-15.81-4.86-19.91-10.29v3a6.69,6.69,0,0,1-13.38,0Zm46.78,45.6v-.23c0-11.28-7.63-18.69-16.7-18.69s-17,7.52-17,18.69v.23c0,11.17,8,18.71,17,18.71S284.53,481.08,284.53,469.57ZM338.75,500c-16.92,0-30-12.28-30-30.32v-.22c0-16.71,11.84-30.44,28.54-30.44,18.57,0,27.75,15.28,27.75,28.78a6.26,6.26,0,0,1-6.3,6.42H322.16c1.44,9.52,8.19,14.83,16.81,14.83A21,21,0,0,0,352.79,484a5,5,0,0,1,3.43-1.22,5.26,5.26,0,0,1,5.31,5.42,5.83,5.83,0,0,1-1.77,4.1C354.45,497,347.82,500,338.75,500ZM352,465.36c-.88-8.63-6-15.38-14.82-15.38-8.18,0-13.93,6.31-15.14,15.38ZM379.59,424a6.59,6.59,0,0,1,6.63-6.64A6.69,6.69,0,0,1,393,424v68.62a6.69,6.69,0,0,1-13.38,0Zm57.63,76c-16.92,0-30-12.28-30-30.32v-.22c0-16.71,11.83-30.44,28.53-30.44,18.57,0,27.75,15.28,27.75,28.78a6.26,6.26,0,0,1-6.3,6.42h-36.6c1.44,9.52,8.18,14.83,16.81,14.83A21,21,0,0,0,451.26,484a5,5,0,0,1,3.43-1.22,5.27,5.27,0,0,1,5.31,5.42,5.87,5.87,0,0,1-1.77,4.1C452.92,497,446.28,500,437.22,500Zm13.26-34.64c-.88-8.63-6-15.38-14.81-15.38-8.19,0-13.94,6.31-15.15,15.38Zm26.8-19a6.6,6.6,0,0,1,6.63-6.75,6.7,6.7,0,0,1,6.75,6.75v6c3.1-7.3,8.85-12.84,14.71-12.84,4.2,0,6.63,2.77,6.63,6.64a6.29,6.29,0,0,1-5.31,6.42c-9.51,1.66-16,9-16,22.8v17.26a6.68,6.68,0,0,1-6.75,6.64,6.59,6.59,0,0,1-6.63-6.64Z"/></g></g></svg>